<svg width="22" height="22" viewBox="0 0 22 22" fill="none" xmlns="http://www.w3.org/2000/svg">
<path d="M21.9082 10.5559C19.687 5.39868 15.5084 2.19879 11 2.19879C6.49157 2.19879 2.31303 5.39868 0.0918013 10.5559C0.0312527 10.6946 0 10.8444 0 10.9957C0 11.1471 0.0312527 11.2968 0.0918013 11.4356C2.31303 16.5928 6.49157 19.7927 11 19.7927C15.5084 19.7927 19.687 16.5928 21.9082 11.4356C21.9687 11.2968 22 11.1471 22 10.9957C22 10.8444 21.9687 10.6946 21.9082 10.5559ZM11 17.5934C7.51421 17.5934 4.21536 15.0753 2.31303 10.9957C4.21536 6.91615 7.51421 4.39803 11 4.39803C14.4858 4.39803 17.7846 6.91615 19.687 10.9957C17.7846 15.0753 14.4858 17.5934 11 17.5934ZM11 6.59726C10.1301 6.59726 9.27967 6.85523 8.55634 7.33853C7.83302 7.82184 7.26926 8.50879 6.93635 9.31251C6.60344 10.1162 6.51633 11.0006 6.68605 11.8538C6.85576 12.707 7.27468 13.4908 7.88981 14.1059C8.50495 14.721 9.28868 15.14 10.1419 15.3097C10.9951 15.4794 11.8795 15.3923 12.6832 15.0594C13.4869 14.7265 14.1739 14.1627 14.6572 13.4394C15.1405 12.7161 15.3985 11.8657 15.3985 10.9957C15.3985 9.82918 14.9351 8.71041 14.1102 7.88554C13.2853 7.06067 12.1665 6.59726 11 6.59726ZM11 13.195C10.565 13.195 10.1398 13.066 9.77817 12.8243C9.41651 12.5827 9.13463 12.2392 8.96817 11.8373C8.80172 11.4355 8.75817 10.9933 8.84302 10.5667C8.92788 10.1401 9.13734 9.7482 9.44491 9.44063C9.75248 9.13307 10.1443 8.92361 10.571 8.83875C10.9976 8.75389 11.4398 8.79744 11.8416 8.9639C12.2435 9.13035 12.5869 9.41224 12.8286 9.7739C13.0703 10.1356 13.1992 10.5608 13.1992 10.9957C13.1992 11.579 12.9675 12.1384 12.5551 12.5508C12.1427 12.9633 11.5833 13.195 11 13.195Z" fill="#AABDD4"/>
</svg>
